<svg id="OBJECTS" xmlns="http://www.w3.org/2000/svg" viewBox="0 0 1000 954.5088"><defs><style>.cls-1{fill:#fff;}</style></defs><path class="cls-1" d="M3537.7941-6.8133l15.6933-108.5434H3432.969v-69.296c0-31.4231,9.7754-52.8323,60.3066-52.8323l64.4528-.0235v-97.078c-11.1489-1.3176-49.4047-4.2758-93.9233-4.2758-92.9067,0-156.5247,50.5811-156.5247,143.47v80.0361H3202.1817V-6.8133H3307.28V264.74c43.7257-.3315,84.0093,0,125.6886,0V-6.8133Z" transform="translate(-2879.9551 502.9572)"/><path class="cls-1" d="M3571.5483,451.5516H3188.3738c-170.0615,0-308.4187-138.3756-308.4187-308.4251V-194.5321c0-170.0583,138.3572-308.4251,308.4187-308.4251h383.1745c170.05,0,308.4068,138.3668,308.4068,308.4251V143.1265C3879.9551,313.176,3741.5978,451.5516,3571.5483,451.5516ZM3188.3738-434.4119c-132.2677,0-239.8792,107.6065-239.8792,239.88V143.1265c0,132.2677,107.6115,239.87,239.8792,239.87h383.1745c132.2582,0,239.87-107.6027,239.87-239.87V-194.5321c0-132.2733-107.6121-239.88-239.87-239.88Z" transform="translate(-2879.9551 502.9572)"/></svg>