<svg id="OBJECTS" xmlns="http://www.w3.org/2000/svg" viewBox="0 0 1000 1000"><defs><style>.cls-1{fill:#fff;}</style></defs><path class="cls-1" d="M3379.9451,3208.09a497.7291,497.7291,0,0,1-249.3684-67.1317l-194.805,67.1317,40.0191-206.2977c-62.7435-86.0205-95.8357-187.1883-95.8357-293.7122,0-275.697,224.2931-499.99,499.99-499.99,275.7168,0,500.01,224.2931,500.01,499.99C3879.9551,2983.79,3655.6619,3208.09,3379.9451,3208.09Zm-240.387-148.8972,15.07,9.4307a423.88,423.88,0,0,0,225.3169,65.0712c234.7108,0,425.631-190.9236,425.631-425.6146,0-234.6711-190.92-425.5948-425.631-425.5948-234.6711,0-425.5913,190.9237-425.5913,425.5948,0,95.4786,31.2782,185.9542,90.3991,261.6172l10.4553,13.3661-21.8837,112.72Z" transform="translate(-2879.9551 -2208.0898)"/><path class="cls-1" d="M3127.532,2515.9822s29.3542-51.2775,53.2588-54.2054c23.9211-2.9417,54.7123-2.9417,63.0031,12.6926,8.3106,15.6207,45.4147,106.4836,45.4147,106.4836s6.37,15.6275-3.3978,30.7748c-9.7648,15.1337-31.7454,37.11-31.7454,37.11s-12.2126,15.6275,0,32.2419c12.2125,16.5884,31.1484,47.1228,70.3431,86.2677,39.1224,39.1722,114.2676,67.0983,114.2676,67.0983s10.7551,1.4541,17.6082-5.3758c6.8169-6.8367,43.9579-53.2384,43.9579-53.2384s11.912-15.3741,31.7249-6.3429c19.7759,9.0305,105.49,51.7713,105.49,51.7713s10.0284,3.6547,10.0284,18.7952c0,15.1337-6.1264,52.1845-18.6559,64.7037-12.5294,12.54-49.15,51.1511-104.1989,51.1511-55.0333,0-186.1017-44.7877-255.9415-114.6207-69.84-69.86-131.8553-140.6869-146.4959-205.1373C3107.5327,2571.6684,3109.4935,2542.5348,3127.532,2515.9822Z" transform="translate(-2879.9551 -2208.0898)"/></svg>